<?xml version="1.0" encoding="utf-8"?>
<!-- Generator: Adobe Illustrator 17.0.0, SVG Export Plug-In . SVG Version: 6.00 Build 0)  -->
<!DOCTYPE svg PUBLIC "-//W3C//DTD SVG 1.1//EN" "http://www.w3.org/Graphics/SVG/1.1/DTD/svg11.dtd">
<svg version="1.1" id="Layer_1" xmlns="http://www.w3.org/2000/svg" xmlns:xlink="http://www.w3.org/1999/xlink" x="0px" y="0px"
	 width="960px" height="960px" viewBox="0 0 960 960" enable-background="new 0 0 960 960" xml:space="preserve">
<g>
	<g>
		<path fill="#888888" d="M577.376,391.742c28.903,0,52.473-23.398,52.473-52.473c0-28.903-23.57-52.473-52.473-52.473
			s-52.473,23.398-52.473,52.473C524.903,368.172,548.473,391.742,577.376,391.742z M781.763,609.72
			c18.237,0,33.032-14.796,33.032-33.032c0-18.237-14.796-33.032-33.032-33.032s-33.032,14.796-33.032,33.032
			C748.731,594.925,763.527,609.72,781.763,609.72z M860.043,727.398c-1.72-9.462-3.785-18.065-6.194-27.011
			c-2.409-8.774-5.161-17.548-8.258-26.323c-3.269-8.774-6.882-17.548-11.699-26.151c-3.097-5.677-6.538-11.011-10.667-16.172
			c-4.645-5.849-7.914-8.774-14.796-11.871c-2.753-1.204-8.602-3.269-13.763-3.269h-35.785c-9.978,0.172-16.688,3.097-25.29,5.677
			l-15.14,4.645c-0.344-0.516-0.516-1.032-0.86-1.72c-1.548-2.925-2.925-6.538-4.301-9.978c-1.892-5.161-3.785-10.839-5.333-16.344
			c3.613-5.161,4.989-11.871,3.097-18.581c-4.129-14.796-8.602-28.903-13.247-43.183c-4.645-14.28-9.806-28.387-15.312-42.667
			c-5.677-14.28-11.527-28.387-19.269-42.839c-6.538-12.387-14.108-24.602-24.602-34.065c-9.29-8.43-20.645-12.731-33.032-12.731
			h-56.258c-12.387,0-26.839,5.677-36.129,13.591c-10.323,8.602-15.656,17.72-19.957,25.806
			c-7.398,14.28-12.731,29.763-18.581,44.903l-10.839,28.903c-6.882-27.183-13.419-52.817-13.419-52.817
			c-5.677-17.892-8.258-32.516-17.376-46.108c-5.161-7.742-12.387-15.828-22.882-21.849c-8.774-4.989-22.366-9.978-32.516-9.978
			h-58.151c-11.527,0-23.914,5.505-33.376,11.871c-12.215,8.086-20.301,18.237-26.323,27.871
			c-12.043,19.441-17.892,38.71-22.71,57.462c-4.645,18.753-7.57,37.333-9.634,55.914c-2.064,18.753-3.269,36.645-3.613,55.914
			c0,5.333,1.548,10.151,4.473,14.108c-2.237,4.645-4.473,9.118-7.054,13.419c-3.097,5.333-6.366,10.495-9.979,14.796
			c-3.613,4.473-7.226,7.914-10.839,9.807c0,0-23.054,0-29.419,0c-9.29,0-17.892,5.849-17.892,5.849
			c-6.882,5.333-10.151,9.634-14.624,15.828c-4.301,6.366-7.914,12.731-11.011,19.097c-3.097,6.366-5.849,12.903-8.258,19.441
			c-2.409,6.538-4.645,12.903-6.71,19.957c-1.72,5.849,1.376,12.215,7.226,14.452c6.194,2.237,12.903-0.86,15.312-7.054l0.172-0.344
			c2.065-5.677,4.645-11.699,7.226-17.376c2.753-5.677,5.505-11.355,8.602-16.688c0.86-1.548,1.892-3.097,2.925-4.645l1.376,16.344
			l-20.817,74.323h16.688l-3.269,52.817c-0.344,6.882,4.645,13.075,11.699,13.763c7.226,0.86,13.763-4.473,14.452-11.699
			l5.849-54.194h5.505l5.849,54.194c0.688,6.882,6.882,12.043,13.763,11.699c7.226-0.344,12.731-6.538,12.387-13.935l-3.097-52.129
			h19.097l-23.226-74.839l5.161-35.269c4.473-4.817,13.247-16.344,17.548-22.538c4.301-6.366,8.602-12.731,11.699-19.097
			c2.753-5.505,4.989-11.011,7.226-16.688c9.979-2.065,17.72-10.667,18.409-21.333v-0.688c1.204-16.344,3.269-33.893,6.021-50.581
			c2.753-16.688,6.366-33.204,11.183-48.86l2.237,51.269L279.57,826.495c-0.516,13.935,10.151,26.151,24.258,27.183
			c14.452,1.204,27.183-9.634,28.387-24.086l16.172-199.398l16.172,199.398c1.204,13.935,13.075,24.774,27.183,24.258
			c14.624-0.516,25.978-12.731,25.29-27.355l-10.151-276.989l1.892-41.29l25.979,85.849c3.613,11.871,16,18.925,28.215,16
			c8.946-2.237,15.484-9.462,17.204-18.065c0.344-0.516,0.516-1.204,0.86-1.72l36.645-83.785c1.032-2.237,2.065-4.473,3.097-6.882
			l3.441,38.538L480.86,691.957h39.742l-6.882,137.978c-0.516,12.043,8.43,22.71,20.645,23.742
			c12.559,1.032,23.57-8.086,24.602-20.645l12.559-141.075h11.871l12.559,141.075c1.032,12.043,11.527,21.333,23.742,20.645
			c12.559-0.688,22.194-11.183,21.505-23.742l-6.882-137.979h39.742L630.71,538.15l2.925-31.656
			c1.204,2.409,2.409,4.817,3.441,7.226c6.022,12.731,11.527,25.979,16.86,39.226s10.495,26.839,15.14,40.086l0.172,0.344
			c2.237,6.366,7.226,11.183,13.247,13.247c1.204,5.677,2.753,11.183,4.301,17.032c1.204,4.301,2.581,8.602,4.473,13.075
			c1.72,4.129,3.785,8.086,6.538,11.699c4.817,6.021,12.559,9.118,20.301,8.774c3.957-0.172,6.882-0.86,9.462-1.376
			c5.161-1.376,8.946-2.753,12.559-3.785c2.065-0.688,4.129-1.204,6.022-1.548l3.269,66.409l-7.226,121.29
			c-0.516,7.742,5.333,14.624,13.075,15.484c8.086,0.86,15.312-4.989,16.172-13.075l10.495-97.548l10.495,97.548
			c0.86,7.742,7.57,13.591,15.484,13.075c8.086-0.516,14.28-7.398,13.763-15.484l-7.226-121.29l1.72-36.301
			c0.688,1.376,1.376,2.753,1.893,4.129c3.269,7.57,6.366,15.484,8.946,23.398c2.581,7.914,5.161,16.344,7.054,24.086l0.172,0.344
			c1.72,6.71,8.258,11.011,15.14,9.806C856.602,741.505,861.419,734.624,860.043,727.398z M182.71,642.925
			c16.86,0,30.452-13.591,30.452-30.452s-13.591-30.452-30.452-30.452s-30.452,13.591-30.452,30.452
			C152.258,629.161,165.849,642.925,182.71,642.925z M348.387,373.677c29.935,0,54.194-24.258,54.194-54.194
			s-24.258-54.194-54.194-54.194c-29.935,0-54.194,24.258-54.194,54.194C294.194,349.419,318.452,373.677,348.387,373.677z"/>
	</g>
</g>
</svg>
